<svg width="314" height="106" viewBox="0 0 314 106" fill="none" xmlns="http://www.w3.org/2000/svg">
<path d="M30.688 34.688C31.584 34.7307 32.7573 34.7733 34.208 34.816C35.6587 34.8587 37.088 34.88 38.496 34.88C40.5013 34.88 42.4213 34.8587 44.256 34.816C46.0907 34.7733 47.392 34.752 48.16 34.752C51.616 34.752 54.4747 35.2427 56.736 36.224C59.04 37.2053 60.7467 38.5493 61.856 40.256C63.008 41.92 63.584 43.7973 63.584 45.888C63.584 47.168 63.328 48.5333 62.816 49.984C62.304 51.4347 61.408 52.8 60.128 54.08C58.8907 55.36 57.184 56.4267 55.008 57.28C52.832 58.0907 50.08 58.496 46.752 58.496H40.608V57.216H46.112C49.1413 57.216 51.4453 56.7467 53.024 55.808C54.6453 54.8267 55.7333 53.5467 56.288 51.968C56.8853 50.3467 57.184 48.5547 57.184 46.592C57.184 43.2213 56.3733 40.6187 54.752 38.784C53.1733 36.9067 50.4427 35.968 46.56 35.968C44.5973 35.968 43.3173 36.3307 42.72 37.056C42.1227 37.7813 41.824 39.2533 41.824 41.472V73.216C41.824 74.752 41.952 75.904 42.208 76.672C42.464 77.44 42.9547 77.952 43.68 78.208C44.448 78.464 45.5573 78.6347 47.008 78.72V80C46.0267 79.9147 44.7893 79.872 43.296 79.872C41.8453 79.8293 40.3733 79.808 38.88 79.808C37.216 79.808 35.6587 79.8293 34.208 79.872C32.7573 79.872 31.584 79.9147 30.688 80V78.72C32.1387 78.6347 33.2267 78.464 33.952 78.208C34.72 77.952 35.232 77.44 35.488 76.672C35.744 75.904 35.872 74.752 35.872 73.216V41.472C35.872 39.8933 35.744 38.7413 35.488 38.016C35.232 37.248 34.72 36.736 33.952 36.48C33.2267 36.1813 32.1387 36.0107 30.688 35.968V34.688ZM40.864 57.408C43.168 57.4933 44.9813 57.6 46.304 57.728C47.6267 57.8133 48.6933 57.8987 49.504 57.984C50.3573 58.0693 51.168 58.176 51.936 58.304C54.7947 58.7733 56.8427 59.648 58.08 60.928C59.36 62.1653 60.2987 64.1067 60.896 66.752L62.496 73.28C62.9227 75.1573 63.3493 76.5227 63.776 77.376C64.2453 78.1867 64.9493 78.5707 65.888 78.528C66.6133 78.4853 67.2107 78.2507 67.68 77.824C68.192 77.3973 68.7253 76.8213 69.28 76.096L70.24 76.8C69.344 78.1227 68.4053 79.1467 67.424 79.872C66.4853 80.5547 65.1413 80.896 63.392 80.896C61.8133 80.896 60.4267 80.4267 59.232 79.488C58.0373 78.5493 57.1413 76.7147 56.544 73.984L55.136 67.584C54.752 65.7493 54.304 64.1707 53.792 62.848C53.3227 61.4827 52.64 60.416 51.744 59.648C50.8907 58.88 49.6107 58.496 47.904 58.496H40.992L40.864 57.408ZM86.908 46.144C90.6627 46.144 93.5853 47.296 95.676 49.6C97.8093 51.8613 98.876 55.4027 98.876 60.224H76.284L76.22 59.008H92.732C92.8173 56.9173 92.6467 54.9973 92.22 53.248C91.7933 51.456 91.1107 50.0267 90.172 48.96C89.276 47.8933 88.1027 47.36 86.652 47.36C84.6893 47.36 82.94 48.3413 81.404 50.304C79.9107 52.2667 79.0147 55.3813 78.716 59.648L78.908 59.904C78.8227 60.544 78.7587 61.248 78.716 62.016C78.6733 62.784 78.652 63.552 78.652 64.32C78.652 67.2213 79.1213 69.7173 80.06 71.808C80.9987 73.8987 82.2147 75.4987 83.708 76.608C85.244 77.6747 86.8227 78.208 88.444 78.208C89.724 78.208 90.94 78.016 92.092 77.632C93.244 77.2053 94.3107 76.5227 95.292 75.584C96.2733 74.6453 97.1267 73.3867 97.852 71.808L99.132 72.32C98.6627 73.728 97.8947 75.0933 96.828 76.416C95.7613 77.7387 94.4173 78.8267 92.796 79.68C91.1747 80.4907 89.2973 80.896 87.164 80.896C84.092 80.896 81.4467 80.192 79.228 78.784C77.052 77.376 75.3667 75.4347 74.172 72.96C73.02 70.4427 72.444 67.5627 72.444 64.32C72.444 60.5653 73.0413 57.344 74.236 54.656C75.4307 51.9253 77.116 49.8347 79.292 48.384C81.468 46.8907 84.0067 46.144 86.908 46.144ZM116.491 34.688V36.032C114.358 36.032 113.056 36.2667 112.587 36.736C112.118 37.1627 112.182 37.8667 112.779 38.848L136.715 75.456C137.526 76.6933 138.208 77.5253 138.763 77.952C139.318 78.336 140.064 78.5707 141.003 78.656V80C140.448 79.9573 139.659 79.9147 138.635 79.872C137.654 79.7867 136.608 79.744 135.499 79.744C133.792 79.744 132.064 79.7867 130.315 79.872C128.608 79.9147 127.328 79.9573 126.475 80V78.656C128.608 78.656 129.974 78.528 130.571 78.272C131.168 78.016 131.168 77.4187 130.571 76.48L106.251 39.232C105.44 37.9947 104.758 37.1627 104.203 36.736C103.691 36.3093 102.944 36.0747 101.963 36.032V34.688C102.518 34.7307 103.307 34.7947 104.331 34.88C105.355 34.9227 106.4 34.944 107.467 34.944C109.216 34.944 110.859 34.9227 112.395 34.88C113.931 34.7947 115.296 34.7307 116.491 34.688ZM120.011 56.64C120.011 56.64 120.054 56.7893 120.139 57.088C120.224 57.344 120.31 57.6213 120.395 57.92C120.523 58.176 120.587 58.304 120.587 58.304L112.715 70.016C111.179 72.32 110.368 74.0907 110.283 75.328C110.24 76.5653 110.731 77.44 111.755 77.952C112.779 78.4213 114.187 78.6773 115.979 78.72V80C115.382 79.9573 114.699 79.936 113.931 79.936C113.163 79.8933 112.374 79.872 111.563 79.872C110.795 79.8293 110.027 79.808 109.259 79.808C108.534 79.808 107.894 79.808 107.339 79.808C106.272 79.808 105.248 79.8293 104.267 79.872C103.328 79.872 102.539 79.9147 101.899 80V78.72C103.222 78.5067 104.459 77.9093 105.611 76.928C106.763 75.9467 107.936 74.5813 109.131 72.832L120.011 56.64ZM139.659 34.688V35.968C138.336 36.1387 137.099 36.736 135.947 37.76C134.795 38.7413 133.622 40.1067 132.427 41.856L122.123 57.216C122.123 57.216 122.059 56.9387 121.931 56.384C121.803 55.8293 121.739 55.552 121.739 55.552L129.035 44.672C130.571 42.368 131.467 40.5973 131.723 39.36C131.979 38.1227 131.68 37.2693 130.827 36.8C129.974 36.288 128.651 36.0107 126.859 35.968V34.688C127.67 34.7307 128.502 34.7733 129.355 34.816C130.208 34.816 131.04 34.8373 131.851 34.88C132.704 34.88 133.494 34.88 134.219 34.88C135.328 34.88 136.352 34.8587 137.291 34.816C138.23 34.7733 139.019 34.7307 139.659 34.688ZM154.75 46.144C156.456 46.144 157.907 46.4213 159.102 46.976C160.296 47.5307 161.171 48.0427 161.726 48.512C163.134 49.664 163.987 48.896 164.286 46.208H165.758C165.672 47.4027 165.608 48.832 165.566 50.496C165.523 52.1173 165.502 54.3147 165.502 57.088H164.03C163.774 55.5093 163.326 53.9733 162.686 52.48C162.088 50.9867 161.192 49.7707 159.998 48.832C158.803 47.8507 157.246 47.36 155.326 47.36C153.832 47.36 152.574 47.7867 151.55 48.64C150.568 49.4507 150.078 50.6667 150.078 52.288C150.078 53.568 150.462 54.6773 151.23 55.616C151.998 56.512 153 57.3653 154.238 58.176C155.475 58.944 156.819 59.7973 158.27 60.736C159.891 61.76 161.363 62.8053 162.686 63.872C164.008 64.9387 165.054 66.112 165.822 67.392C166.632 68.672 167.038 70.1867 167.038 71.936C167.038 73.8987 166.526 75.5413 165.502 76.864C164.478 78.1867 163.134 79.1893 161.47 79.872C159.848 80.5547 158.056 80.896 156.094 80.896C155.155 80.896 154.259 80.8107 153.406 80.64C152.595 80.512 151.806 80.2987 151.038 80C150.611 79.7867 150.163 79.5307 149.694 79.232C149.267 78.9333 148.84 78.6133 148.414 78.272C147.987 77.9307 147.603 77.952 147.262 78.336C146.92 78.6773 146.664 79.3813 146.494 80.448H145.022C145.107 79.0827 145.171 77.4187 145.214 75.456C145.256 73.4933 145.278 70.8907 145.278 67.648H146.75C147.048 70.0373 147.475 72.128 148.03 73.92C148.584 75.712 149.459 77.12 150.654 78.144C151.848 79.1253 153.512 79.616 155.646 79.616C156.499 79.616 157.352 79.424 158.206 79.04C159.102 78.656 159.848 78.016 160.446 77.12C161.043 76.224 161.342 75.0293 161.342 73.536C161.342 71.6587 160.659 70.1227 159.294 68.928C157.928 67.7333 156.2 66.4747 154.11 65.152C152.574 64.1707 151.123 63.1893 149.758 62.208C148.435 61.2267 147.347 60.1173 146.494 58.88C145.683 57.6427 145.278 56.1493 145.278 54.4C145.278 52.48 145.704 50.9227 146.558 49.728C147.454 48.4907 148.627 47.5947 150.078 47.04C151.528 46.4427 153.086 46.144 154.75 46.144ZM182.223 36.416V47.104H191.695V48.384H182.223V73.152C182.223 75.1573 182.585 76.5653 183.311 77.376C184.036 78.1867 185.039 78.592 186.319 78.592C187.599 78.592 188.708 78.08 189.647 77.056C190.585 75.9893 191.396 74.2187 192.079 71.744L193.359 72.064C192.932 74.5387 192.079 76.6293 190.799 78.336C189.561 80.0427 187.641 80.896 185.039 80.896C183.588 80.896 182.393 80.704 181.455 80.32C180.516 79.9787 179.684 79.4667 178.959 78.784C178.02 77.8027 177.359 76.6293 176.975 75.264C176.633 73.8987 176.463 72.0853 176.463 69.824V48.384H170.319V47.104H176.463V37.312C177.529 37.2693 178.553 37.184 179.535 37.056C180.516 36.928 181.412 36.7147 182.223 36.416ZM210.096 46.144C213.85 46.144 216.773 47.296 218.864 49.6C220.997 51.8613 222.064 55.4027 222.064 60.224H199.472L199.408 59.008H215.92C216.005 56.9173 215.834 54.9973 215.408 53.248C214.981 51.456 214.298 50.0267 213.36 48.96C212.464 47.8933 211.29 47.36 209.84 47.36C207.877 47.36 206.128 48.3413 204.592 50.304C203.098 52.2667 202.202 55.3813 201.904 59.648L202.095 59.904C202.01 60.544 201.946 61.248 201.904 62.016C201.861 62.784 201.84 63.552 201.84 64.32C201.84 67.2213 202.309 69.7173 203.248 71.808C204.186 73.8987 205.402 75.4987 206.896 76.608C208.432 77.6747 210.01 78.208 211.632 78.208C212.912 78.208 214.128 78.016 215.28 77.632C216.432 77.2053 217.498 76.5227 218.48 75.584C219.461 74.6453 220.314 73.3867 221.04 71.808L222.32 72.32C221.85 73.728 221.082 75.0933 220.016 76.416C218.949 77.7387 217.605 78.8267 215.984 79.68C214.362 80.4907 212.485 80.896 210.352 80.896C207.28 80.896 204.634 80.192 202.416 78.784C200.24 77.376 198.554 75.4347 197.36 72.96C196.208 70.4427 195.632 67.5627 195.632 64.32C195.632 60.5653 196.229 57.344 197.424 54.656C198.618 51.9253 200.304 49.8347 202.48 48.384C204.656 46.8907 207.194 46.144 210.096 46.144ZM236.007 80.448C234.257 80.448 232.743 80.128 231.463 79.488C230.183 78.8053 229.201 77.8667 228.519 76.672C227.879 75.4773 227.559 74.0907 227.559 72.512C227.559 70.6347 227.985 69.0987 228.839 67.904C229.735 66.7093 230.865 65.7493 232.231 65.024C233.596 64.2987 235.025 63.7013 236.519 63.232C238.055 62.72 239.505 62.2507 240.871 61.824C242.236 61.3547 243.345 60.8213 244.199 60.224C245.095 59.6267 245.543 58.8373 245.543 57.856V53.888C245.543 52.096 245.265 50.7307 244.711 49.792C244.199 48.8533 243.495 48.2347 242.599 47.936C241.703 47.5947 240.7 47.424 239.591 47.424C238.524 47.424 237.372 47.5733 236.135 47.872C234.94 48.1707 233.98 48.7893 233.255 49.728C234.065 49.8987 234.769 50.3253 235.367 51.008C235.964 51.6907 236.263 52.5653 236.263 53.632C236.263 54.6987 235.921 55.552 235.239 56.192C234.556 56.7893 233.681 57.088 232.615 57.088C231.377 57.088 230.46 56.704 229.863 55.936C229.308 55.1253 229.031 54.2293 229.031 53.248C229.031 52.1387 229.308 51.2427 229.863 50.56C230.417 49.8773 231.121 49.2373 231.975 48.64C232.956 47.9573 234.215 47.3813 235.751 46.912C237.329 46.4 239.1 46.144 241.062 46.144C242.812 46.144 244.305 46.3573 245.543 46.784C246.78 47.168 247.804 47.744 248.615 48.512C249.724 49.536 250.449 50.7947 250.791 52.288C251.132 53.7387 251.303 55.488 251.303 57.536V75.328C251.303 76.3947 251.452 77.1627 251.751 77.632C252.092 78.1013 252.604 78.336 253.287 78.336C253.756 78.336 254.204 78.2293 254.631 78.016C255.057 77.8027 255.569 77.4613 256.167 76.992L256.871 78.08C255.975 78.7627 255.121 79.3387 254.311 79.808C253.5 80.2347 252.412 80.448 251.047 80.448C249.809 80.448 248.785 80.2347 247.975 79.808C247.164 79.3813 246.545 78.7627 246.119 77.952C245.735 77.0987 245.543 76.032 245.543 74.752C244.391 76.672 243.004 78.1013 241.383 79.04C239.804 79.9787 238.012 80.448 236.007 80.448ZM238.311 77.888C239.719 77.888 241.02 77.4827 242.215 76.672C243.452 75.8613 244.561 74.6453 245.543 73.024V60.48C245.031 61.2053 244.284 61.824 243.303 62.336C242.321 62.8053 241.255 63.296 240.103 63.808C238.951 64.2773 237.841 64.8533 236.775 65.536C235.751 66.176 234.897 67.0293 234.215 68.096C233.532 69.1627 233.191 70.5493 233.191 72.256C233.191 73.9627 233.639 75.328 234.535 76.352C235.473 77.376 236.732 77.888 238.311 77.888ZM279.914 46.144C281.407 46.144 282.708 46.3573 283.818 46.784C284.927 47.2107 285.844 47.808 286.57 48.576C287.38 49.4293 287.935 50.5387 288.234 51.904C288.532 53.2693 288.682 54.9547 288.682 56.96V74.048C288.682 75.84 289.044 77.056 289.77 77.696C290.538 78.336 291.796 78.656 293.546 78.656V80C292.82 79.9573 291.711 79.9147 290.218 79.872C288.724 79.7867 287.274 79.744 285.866 79.744C284.458 79.744 283.071 79.7867 281.706 79.872C280.383 79.9147 279.38 79.9573 278.698 80V78.656C280.234 78.656 281.322 78.336 281.962 77.696C282.602 77.056 282.922 75.84 282.922 74.048V55.552C282.922 54.2293 282.836 53.0133 282.666 51.904C282.495 50.7947 282.068 49.8987 281.386 49.216C280.703 48.5333 279.594 48.192 278.058 48.192C276.394 48.192 274.9 48.704 273.578 49.728C272.298 50.752 271.274 52.16 270.506 53.952C269.78 55.7013 269.418 57.664 269.418 59.84V74.048C269.418 75.84 269.738 77.056 270.378 77.696C271.018 78.336 272.106 78.656 273.642 78.656V80C272.959 79.9573 271.935 79.9147 270.57 79.872C269.247 79.7867 267.882 79.744 266.474 79.744C265.066 79.744 263.615 79.7867 262.122 79.872C260.628 79.9147 259.519 79.9573 258.794 80V78.656C260.543 78.656 261.78 78.336 262.506 77.696C263.274 77.056 263.658 75.84 263.658 74.048V54.016C263.658 52.096 263.316 50.688 262.634 49.792C261.951 48.8533 260.671 48.384 258.794 48.384V47.04C260.159 47.168 261.482 47.232 262.762 47.232C263.999 47.232 265.172 47.168 266.282 47.04C267.434 46.8693 268.479 46.6347 269.418 46.336V53.888C270.527 51.1147 272.042 49.1307 273.962 47.936C275.882 46.7413 277.866 46.144 279.914 46.144ZM299.178 46.144C300.671 46.144 301.972 46.3573 303.082 46.784C304.191 47.2107 305.108 47.808 305.834 48.576C306.644 49.4293 307.199 50.5387 307.498 51.904C307.796 53.2693 307.946 54.9547 307.946 56.96V74.048C307.946 75.84 308.308 77.056 309.034 77.696C309.802 78.336 311.06 78.656 312.81 78.656V80C312.084 79.9573 310.975 79.9147 309.482 79.872C307.988 79.7867 306.538 79.744 305.13 79.744C303.722 79.744 302.335 79.7867 300.97 79.872C299.647 79.9147 298.644 79.9573 297.962 80V78.656C299.498 78.656 300.586 78.336 301.226 77.696C301.866 77.056 302.186 75.84 302.186 74.048V55.552C302.186 54.2293 302.1 53.0133 301.93 51.904C301.759 50.7947 301.332 49.8987 300.65 49.216C299.967 48.5333 298.858 48.192 297.322 48.192C295.658 48.192 294.164 48.704 292.842 49.728C291.562 50.752 290.538 52.1387 289.77 53.888C289.044 55.6373 288.682 57.6 288.682 59.776L288.49 53.824C289.642 50.88 291.199 48.8747 293.162 47.808C295.124 46.6987 297.13 46.144 299.178 46.144Z" fill="black"/>
<rect x="0.5" y="6.5" width="99" height="99" stroke="black"/>
</svg>
